<?xml version="1.0" encoding="utf-8"?>
<svg xmlns="http://www.w3.org/2000/svg" width="405.504" height="463" viewBox="0 0 405.504 463">
  <g id="FISEC_LOGO" data-name="FISEC LOGO" transform="translate(-6917 487)">
    <rect id="Rectangle_7529" data-name="Rectangle 7529" width="404.5" height="463" transform="translate(6917 -487)" fill="none"/>
    <path id="Union_18" data-name="Union 18" d="M128.768,378.96a96.07,96.07,0,0,0,56.293-27.519,92.2,92.2,0,0,0,27.668-66.3c.113-24.525-.135-49.057-.222-73.535l62.859.628.451,19.135-42.677-1.642c.308,18.81.6,35.105.87,51.393a113.473,113.473,0,0,1-37.6,88.538A113.778,113.778,0,0,1,128.357,400ZM.013,286.376c-.964-66.645,54.177-114.553,105.5-116.516-.224,6.623-.451,13.244-.686,19.988-59.178,10.117-84.192,57.415-83.534,96.046.69,40.338,27.87,84.335,84.786,93.413l.069,20C55.12,397.488.924,350.956.013,286.376ZM127.734,342.82c.137-2.025.191-4.059.274-5.969,32.747-12.986,42.257-26.984,42.268-61.85,0-14.023.08-28.046.125-42.916l-41.766,1.629.5-21.467,61.838-.091a4.086,4.086,0,0,1,.5,1.934c-.009,24.878.617,49.778-.308,74.621a73.161,73.161,0,0,1-58.748,68.01c-1.383.269-2.808.29-5.734.567C127.061,352.15,127.42,347.49,127.734,342.82ZM298.346,209.648c25.937-3.739,47.716-14.922,64-35.209a92.122,92.122,0,0,0,20.681-64.605c-2.333-41.889-32.265-81.565-84.536-89.211l1.3-19.876c43.33-.008,100.479,41.644,104.478,106.9C408.51,176.79,353.211,227,298.463,229.994Zm-85.409-27.56c-.049-21.954-.25-43.912.02-65.86.471-38,26.673-68.626,63.759-73.761L276.2,63.012c-33.8,10.377-43.469,34.718-42.171,61.7.669,13.983-.131,28.029-.28,43.292l41.794-1.94.091,22.547a20.762,20.762,0,0,1-3.041.421c-19.448.148-38.9.26-58.942.385C213.358,186.522,212.941,184.3,212.937,182.089Zm-84.495,4.748.68-18.915,41.441,1.659c-.047-20.05-.133-37.549-.121-55.045C170.489,57.98,213.1,8.934,269.563.43c2.01-.307,4.067-.313,5.785-.43l.076,17.819c-14.9,6.934-30.68,12.142-44.022,20.964-26.252,17.373-38.829,43.379-39.509,74.5-.544,24.832.14,49.708.283,73.656Z" transform="translate(6917.5 -455.5)" fill="#d61c1c" stroke="rgba(255,0,0,0)" stroke-miterlimit="10" stroke-width="1"/>
  </g>
</svg>
