<?xml version="1.0" encoding="UTF-8"?>
<svg version="1.1" xmlns="http://www.w3.org/2000/svg" width="116" height="103">
<path d="M0 0 C9.15248185 7.21166539 15.93669671 19.18695165 18 30.62890625 C19.03809043 46.5406202 16.55723182 60.51133466 5.96484375 73.03515625 C-3.29064089 82.82931989 -14.79385884 88.89473808 -28.3125 89.8671875 C-43.95359259 90.18199763 -56.60793654 85.76675823 -68.1875 75.12890625 C-78.13518305 64.75825085 -82.39599569 52.00132955 -82.37133789 37.83789062 C-82.06575037 26.91281978 -78.2404054 17.51008774 -72 8.62890625 C-71.56042969 7.99339844 -71.12085938 7.35789062 -70.66796875 6.703125 C-53.49985593 -15.61047408 -21.25542712 -14.57159164 0 0 Z " fill="#5E55A8" transform="translate(90,10.37109375)"/>
<path d="M0 0 C2.2014711 1.93916816 3.42796883 3.47352133 5 6 C4.67 6.99 4.34 7.98 4 9 C3.34 8.67 2.68 8.34 2 8 C2.185625 8.61875 2.37125 9.2375 2.5625 9.875 C3 12 3 12 2 14 C4.31 13.34 6.62 12.68 9 12 C9.495 14.475 9.495 14.475 10 17 C9.34 17 8.68 17 8 17 C8 18.65 8 20.3 8 22 C7.36191406 22.10957031 6.72382812 22.21914063 6.06640625 22.33203125 C5.24011719 22.49058594 4.41382812 22.64914063 3.5625 22.8125 C2.32693359 23.03873047 2.32693359 23.03873047 1.06640625 23.26953125 C0.38449219 23.51058594 -0.29742187 23.75164063 -1 24 C-1.33 24.99 -1.66 25.98 -2 27 C-2.66 27 -3.32 27 -4 27 C-4 27.66 -4 28.32 -4 29 C-4.66 29 -5.32 29 -6 29 C-6 29.66 -6 30.32 -6 31 C-7.32 31.33 -8.64 31.66 -10 32 C-10 32.66 -10 33.32 -10 34 C-20 34 -20 34 -23 33 C-23.99 33.495 -23.99 33.495 -25 34 C-25.99 33.505 -25.99 33.505 -27 33 C-27.495 33.99 -27.495 33.99 -28 35 C-28 32.36 -28 29.72 -28 27 C-32.53038577 28.35911573 -34.2158904 30.18928111 -36.75 34.125 C-37.81615767 35.76132024 -38.89482647 37.38977406 -40 39 C-40.33 39 -40.66 39 -41 39 C-41.06058594 38.28972656 -41.12117188 37.57945313 -41.18359375 36.84765625 C-41.26738281 35.92855469 -41.35117187 35.00945313 -41.4375 34.0625 C-41.51871094 33.14597656 -41.59992187 32.22945312 -41.68359375 31.28515625 C-41.76044976 29.03840268 -41.76044976 29.03840268 -43 28 C-47.09789669 28.37943488 -49.53958935 28.69305957 -53 31 C-52.34 29.02 -51.68 27.04 -51 25 C-54.33537489 26.11179163 -55.63707344 27.47411298 -58 30 C-57.34 30.33 -56.68 30.66 -56 31 C-56.57153171 34.5622867 -57.82058231 36.13056194 -60.4375 38.5625 C-64.21663675 42.1049476 -66.15912146 44.81458235 -67 50 C-63.25676503 49.04635088 -62.13495541 48.20516342 -59.97265625 44.91796875 C-59.32107128 43.68220415 -58.6847012 42.43831684 -58.0625 41.1875 C-55.42758417 35.92316921 -53.01482349 32.2599555 -48 29 C-45.125 29.1875 -45.125 29.1875 -43 30 C-43.14109986 32.10448938 -43.28804175 34.2085877 -43.4375 36.3125 C-43.51871094 37.48425781 -43.59992187 38.65601563 -43.68359375 39.86328125 C-44 43 -44 43 -45 46 C-42.11900226 43.45142508 -40.11440285 40.71835924 -38.0625 37.5 C-35.76416508 33.95015445 -33.54718701 31.39956768 -30 29 C-30.20496094 29.68964844 -30.40992188 30.37929688 -30.62109375 31.08984375 C-31.95781273 35.75237073 -33.13670571 40.22106127 -33.5625 45.0625 C-34 49 -34 49 -36 51 C-36.33 50.01 -36.66 49.02 -37 48 C-37.33 47.67 -37.66 47.34 -38 47 C-39.65 47.99 -41.3 48.98 -43 50 C-45.1752362 47.46222444 -46.85058499 45.41089129 -48 42.25 C-48.33 41.5075 -48.66 40.765 -49 40 C-51.04105639 39.11306697 -51.04105639 39.11306697 -53 39 C-54.00385996 41.79458748 -54.00385996 41.79458748 -54.375 43.9375 C-55.1259947 46.41578253 -56.36725641 48.01231215 -58 50 C-57.34 50.33 -56.68 50.66 -56 51 C-56 52.32 -56 53.64 -56 55 C-57.32 55 -58.64 55 -60 55 C-60 54.34 -60 53.68 -60 53 C-62.31 53 -64.62 53 -67 53 C-67.33 53.66 -67.66 54.32 -68 55 C-68.66 55 -69.32 55 -70 55 C-70.66 54.34 -71.32 53.68 -72 53 C-73.12272841 56.36818523 -72.70327288 58.57154472 -72 62 C-72.33 62.99 -72.66 63.98 -73 65 C-70.525 64.505 -70.525 64.505 -68 64 C-67.7834375 65.1446875 -67.7834375 65.1446875 -67.5625 66.3125 C-67.0367406 69.08172908 -67.0367406 69.08172908 -66 72 C-63.36 72 -60.72 72 -58 72 C-58 73.65 -58 75.3 -58 77 C-57.34 77 -56.68 77 -56 77 C-56 77.99 -56 78.98 -56 80 C-54.515 80.99 -54.515 80.99 -53 82 C-51.8125 84.125 -51.8125 84.125 -51 86 C-57.96858821 84.08566399 -61.94904127 79.96856136 -67 75 C-67.59425781 74.41863281 -68.18851563 73.83726563 -68.80078125 73.23828125 C-78.05850444 63.35859216 -80.67562895 50.20090154 -80.3125 37.10546875 C-79.74704242 27.00969486 -75.74814126 18.18060407 -70 10 C-69.56042969 9.36449219 -69.12085938 8.72898437 -68.66796875 8.07421875 C-52.50808569 -12.92897221 -20.66258585 -13.93210186 0 0 Z M-39 51 C-38.01 51.33 -37.02 51.66 -36 52 C-36.99 52.33 -37.98 52.66 -39 53 C-39 52.34 -39 51.68 -39 51 Z " fill="#1E2879" transform="translate(88,9)"/>
<path d="M0 0 C4.42068526 4.0306248 8.31776927 8.61537138 11 14 C10.67 14.99 10.34 15.98 10 17 C8.515 17.495 8.515 17.495 7 18 C6.34 17.67 5.68 17.34 5 17 C5 18.65 5 20.3 5 22 C3.68 21.67 2.36 21.34 1 21 C-0.29398147 22.43541666 -1.58510111 23.87341352 -2.875 25.3125 C-3.59429687 26.11300781 -4.31359375 26.91351563 -5.0546875 27.73828125 C-7.11605502 30.04189083 -7.11605502 30.04189083 -9 33 C-12.2578125 33.29296875 -12.2578125 33.29296875 -16.125 33.1875 C-18.04699219 33.14689453 -18.04699219 33.14689453 -20.0078125 33.10546875 C-20.99523437 33.07066406 -21.98265625 33.03585938 -23 33 C-23 33.99 -23 34.98 -23 36 C-22.67 35.67 -22.34 35.34 -22 35 C-20.31391034 34.92794489 -18.62499341 34.91613932 -16.9375 34.9375 C-16.01839844 34.94652344 -15.09929687 34.95554688 -14.15234375 34.96484375 C-13.44207031 34.97644531 -12.73179688 34.98804688 -12 35 C-12.93274109 36.12894876 -13.87140122 37.25300876 -14.8125 38.375 C-15.33457031 39.00148437 -15.85664062 39.62796875 -16.39453125 40.2734375 C-18 42 -18 42 -21 44 C-23.33199388 44.07905064 -25.66832622 44.08798769 -28 44 C-27.01 44.66 -26.02 45.32 -25 46 C-25.33 46.99 -25.66 47.98 -26 49 C-29.3 49.66 -32.6 50.32 -36 51 C-36.33 50.34 -36.66 49.68 -37 49 C-39.02463255 48.34786708 -39.02463255 48.34786708 -41 48 C-40.34 47.01 -39.68 46.02 -39 45 C-38.59921974 43.09629377 -38.27375738 41.17607869 -38 39.25 C-37.30127218 34.68054188 -36.40020466 30.40064323 -35 26 C-39.22747314 30.58077782 -42.89118901 35.0901648 -45.95703125 40.53125 C-46.30121094 41.0159375 -46.64539063 41.500625 -47 42 C-47.66 42 -48.32 42 -49 42 C-48.67 36.72 -48.34 31.44 -48 26 C-54.09888592 26.86840287 -54.09888592 26.86840287 -57.70703125 30.9765625 C-59.90056076 34.40933678 -61.79579496 37.99346151 -63.66796875 41.609375 C-65 44 -65 44 -67 46 C-68.32 46 -69.64 46 -71 46 C-71.43261434 42.54526546 -71.22689611 41.30299501 -69.1015625 38.46484375 C-68.28429687 37.63082031 -67.46703125 36.79679687 -66.625 35.9375 C-63.85312021 33.08202383 -61.55153945 30.6912999 -60 27 C-61.32 26.67 -62.64 26.34 -64 26 C-63.38125 25.731875 -62.7625 25.46375 -62.125 25.1875 C-59.7004767 24.04443152 -59.7004767 24.04443152 -58 21 C-57.01 21 -56.02 21 -55 21 C-55.33 22.65 -55.66 24.3 -56 26 C-55.443125 25.505 -54.88625 25.01 -54.3125 24.5 C-51.58491075 22.73075292 -50.19151509 22.5800638 -47 23 C-43.99382731 26.00617269 -44.40414684 28.82381598 -44 33 C-43.20335937 31.93458984 -43.20335937 31.93458984 -42.390625 30.84765625 C-41.33101562 29.46900391 -41.33101562 29.46900391 -40.25 28.0625 C-39.55390625 27.14597656 -38.8578125 26.22945312 -38.140625 25.28515625 C-35.98970965 22.98901487 -35.06382739 22.32432407 -32 22 C-31 26.75 -31 26.75 -31 29 C-30.01 29 -29.02 29 -28 29 C-27.34 28.34 -26.68 27.68 -26 27 C-26 27.66 -26 28.32 -26 29 C-22.63181477 30.12272841 -20.42845528 29.70327288 -17 29 C-16.01 29.33 -15.02 29.66 -14 30 C-14 29.34 -14 28.68 -14 28 C-12.68 27.67 -11.36 27.34 -10 27 C-10 26.34 -10 25.68 -10 25 C-9.34 25 -8.68 25 -8 25 C-8 24.34 -8 23.68 -8 23 C-4.24039194 19.24039194 -1.24099655 18.41105855 4 18 C4 16.35 4 14.7 4 13 C4.66 13 5.32 13 6 13 C6 12.34 6 11.68 6 11 C3.9254644 9.7763932 3.9254644 9.7763932 1 10 C0.01 10 -0.98 10 -2 10 C-3.125 6.25 -3.125 6.25 -2 4 C-1.34 4 -0.68 4 0 4 C0 2.68 0 1.36 0 0 Z " fill="#4045A3" transform="translate(92,13)"/>
<path d="M0 0 C-0.14109986 2.10448938 -0.28804175 4.2085877 -0.4375 6.3125 C-0.51871094 7.48425781 -0.59992187 8.65601563 -0.68359375 9.86328125 C-1 13 -1 13 -2 16 C0.88099774 13.45142508 2.88559715 10.71835924 4.9375 7.5 C7.23583492 3.95015445 9.45281299 1.39956768 13 -1 C12.79503906 -0.31035156 12.59007812 0.37929688 12.37890625 1.08984375 C11.04218727 5.75237073 9.86329429 10.22106127 9.4375 15.0625 C9 19 9 19 7 21 C6.67 20.01 6.34 19.02 6 18 C5.67 17.67 5.34 17.34 5 17 C2.525 18.485 2.525 18.485 0 20 C-2.1752362 17.46222444 -3.85058499 15.41089129 -5 12.25 C-5.33 11.5075 -5.66 10.765 -6 10 C-8.04105639 9.11306697 -8.04105639 9.11306697 -10 9 C-11.00385996 11.79458748 -11.00385996 11.79458748 -11.375 13.9375 C-12.1259947 16.41578253 -13.36725641 18.01231215 -15 20 C-14.34 20.33 -13.68 20.66 -13 21 C-13 22.32 -13 23.64 -13 25 C-14.32 25 -15.64 25 -17 25 C-17 24.34 -17 23.68 -17 23 C-18.98 23 -20.96 23 -23 23 C-23 22.34 -23 21.68 -23 21 C-22.01 21 -21.02 21 -20 21 C-19.73703125 20.47277344 -19.4740625 19.94554688 -19.203125 19.40234375 C-18.80609375 18.60957031 -18.4090625 17.81679688 -18 17 C-17.49984375 15.99066406 -16.9996875 14.98132813 -16.484375 13.94140625 C-8.23274005 -2.13441409 -8.23274005 -2.13441409 0 0 Z M4 21 C4.99 21.33 5.98 21.66 7 22 C6.01 22.33 5.02 22.66 4 23 C4 22.34 4 21.68 4 21 Z " fill="#1F2A81" transform="translate(45,39)"/>
<path d="M0 0 C0.99 0 1.98 0 3 0 C2.67 1.65 2.34 3.3 2 5 C2.556875 4.505 3.11375 4.01 3.6875 3.5 C6.41508925 1.73075292 7.80848491 1.5800638 11 2 C14.00617269 5.00617269 13.59585316 7.82381598 14 12 C14.79664063 10.93458984 14.79664063 10.93458984 15.609375 9.84765625 C16.66898438 8.46900391 16.66898438 8.46900391 17.75 7.0625 C18.44609375 6.14597656 19.1421875 5.22945312 19.859375 4.28515625 C22.01029035 1.98901487 22.93617261 1.32432407 26 1 C27.3727542 5.11826259 26.62045479 7.24886314 24.76953125 11.0859375 C23.47073474 14.31644658 23.30286947 17.5472881 23 21 C24.32 20.67 25.64 20.34 27 20 C26.01 20.99 25.02 21.98 24 23 C22.68 22.34 21.36 21.68 20 21 C20.47986031 15.43109483 21.29915181 10.32932432 23 5 C18.77252686 9.58077782 15.10881099 14.0901648 12.04296875 19.53125 C11.69878906 20.0159375 11.35460937 20.500625 11 21 C10.34 21 9.68 21 9 21 C9.33 15.72 9.66 10.44 10 5 C3.90111408 5.86840287 3.90111408 5.86840287 0.29296875 9.9765625 C-1.90056076 13.40933678 -3.79579496 16.99346151 -5.66796875 20.609375 C-7 23 -7 23 -9 25 C-10.32 25 -11.64 25 -13 25 C-13.43261434 21.54526546 -13.22689611 20.30299501 -11.1015625 17.46484375 C-10.28429687 16.63082031 -9.46703125 15.79679687 -8.625 14.9375 C-5.85312021 12.08202383 -3.55153945 9.6912999 -2 6 C-3.32 5.67 -4.64 5.34 -6 5 C-5.38125 4.731875 -4.7625 4.46375 -4.125 4.1875 C-1.7004767 3.04443152 -1.7004767 3.04443152 0 0 Z " fill="#DADFF3" transform="translate(34,34)"/>
<path d="M0 0 C0.66 0 1.32 0 2 0 C0.46527032 4.72224516 -1.23945126 9.35855331 -3 14 C-1.68 14.33 -0.36 14.66 1 15 C-0.65 15.33 -2.3 15.66 -4 16 C-4.33 17.98 -4.66 19.96 -5 22 C-3.88625 21.319375 -3.88625 21.319375 -2.75 20.625 C-0.53069422 19.31359204 1.67967822 18.11719197 4 17 C-0.37792329 22.71562208 -0.37792329 22.71562208 -3.1875 24 C-3.785625 24 -4.38375 24 -5 24 C-7.5654594 21.4345406 -7.54046087 19.52313332 -8 16 C-8.99 15.67 -9.98 15.34 -11 15 C-11.2578125 15.59425781 -11.515625 16.18851563 -11.78125 16.80078125 C-13.09836977 19.177507 -14.41343934 20.46785573 -16.5 22.1875 C-17.1084375 22.69667969 -17.716875 23.20585938 -18.34375 23.73046875 C-21.85180018 26.41942231 -24.66003924 26.08036964 -29 26 C-29.33 24.35 -29.66 22.7 -30 21 C-29.67 21.99 -29.34 22.98 -29 24 C-22.00181313 23.09801147 -18.57825441 21.39999239 -14 16 C-15.43655854 15.91868537 -16.8744483 15.86066441 -18.3125 15.8125 C-19.11300781 15.77769531 -19.91351563 15.74289063 -20.73828125 15.70703125 C-23.47851584 16.06198392 -24.29171079 16.89366282 -26 19 C-26.125 16.625 -26.125 16.625 -26 14 C-25.34 13.34 -24.68 12.68 -24 12 C-21.78843125 12.11609285 -19.57984899 12.29226262 -17.375 12.5 C-11.89407047 12.63988002 -11.89407047 12.63988002 -7.3671875 9.8515625 C-5.39585337 7.3128333 -3.67219485 4.74203995 -2 2 C-1.34 1.34 -0.68 0.68 0 0 Z " fill="#D4D1F1" transform="translate(93,33)"/>
<path d="M0 0 C0.66 0.33 1.32 0.66 2 1 C1.67 1.99 1.34 2.98 1 4 C0.34 4 -0.32 4 -1 4 C-1.2475 4.61875 -1.495 5.2375 -1.75 5.875 C-3.20628639 8.35068687 -4.37812506 8.95125002 -7 10 C-7 11.98 -7 13.96 -7 16 C-8.32 15.67 -9.64 15.34 -11 15 C-12.02323436 16.31558703 -13.01755155 17.65368175 -14 19 C-14.5775 19.763125 -15.155 20.52625 -15.75 21.3125 C-17.40780316 24.8767768 -16.81375837 27.22712027 -16 31 C-15.01 31.33 -14.02 31.66 -13 32 C-14.3125 34.9375 -14.3125 34.9375 -16 38 C-17.485 38.495 -17.485 38.495 -19 39 C-21.05925681 42.08888522 -21.2390374 42.70935927 -21.125 46.1875 C-21.08375 47.445625 -21.0425 48.70375 -21 50 C-21.99 50.495 -21.99 50.495 -23 51 C-23.79313524 33.83743468 -20.32721096 19.67744171 -8.58984375 6.5390625 C-5.95402639 3.98743587 -3.05866333 2.0187178 0 0 Z " fill="#161B47" transform="translate(31,7)"/>
<path d="M0 0 C1.47265625 1.0703125 1.47265625 1.0703125 3 3 C4.88979465 16.58609125 1.22259211 30.0427449 -7 41 C-9.54234924 43.81310485 -12.19429909 46.45065755 -15 49 C-15.495 47.515 -15.495 47.515 -16 46 C-11.88888889 40.44444444 -11.88888889 40.44444444 -9 39 C-9.04125 38.0925 -9.0825 37.185 -9.125 36.25 C-9.00241832 33.06287624 -8.45848783 31.72251062 -7 29 C-7.33 28.34 -7.66 27.68 -8 27 C-5.92378409 22.84756817 -3.05627587 19.45841743 0 16 C0.33 16 0.66 16 1 16 C1.05399736 14.54207116 1.09279177 13.08357288 1.125 11.625 C1.14820312 10.81289063 1.17140625 10.00078125 1.1953125 9.1640625 C1.21370051 6.78657757 1.21370051 6.78657757 -1 5 C-0.625 2.375 -0.625 2.375 0 0 Z " fill="#A686B9" transform="translate(105,40)"/>
<path d="M0 0 C1.875 0.25 1.875 0.25 4 1 C5.69779233 3.42306284 6.05811784 4.58423392 5.64453125 7.54296875 C5.23267578 8.85201172 5.23267578 8.85201172 4.8125 10.1875 C4.55082031 11.06792969 4.28914063 11.94835938 4.01953125 12.85546875 C3.51486328 13.91701172 3.51486328 13.91701172 3 15 C2.01 15.33 1.02 15.66 0 16 C-0.66 16.66 -1.32 17.32 -2 18 C-4.125 17.625 -4.125 17.625 -6 17 C-5.67 16.01 -5.34 15.02 -5 14 C-5.66 13.67 -6.32 13.34 -7 13 C-6.67 11.68 -6.34 10.36 -6 9 C-5.01 9.33 -4.02 9.66 -3 10 C-2.67 9.67 -2.34 9.34 -2 9 C-2.99 9 -3.98 9 -5 9 C-4.75 6.125 -4.75 6.125 -4 3 C-1.9375 1.625 -1.9375 1.625 0 1 C0 0.67 0 0.34 0 0 Z " fill="#806EAE" transform="translate(93,46)"/>
<path d="M0 0 C1 2 1 2 0.4765625 3.84765625 C0.19554687 4.57855469 -0.08546875 5.30945312 -0.375 6.0625 C-1.830077 10.13144836 -2.44099641 13.84984744 -2.69140625 18.15234375 C-3 20 -3 20 -5 22 C-5.33 21.01 -5.66 20.02 -6 19 C-6.33 18.67 -6.66 18.34 -7 18 C-8.65 18.99 -10.3 19.98 -12 21 C-12.7265625 19.37109375 -12.7265625 19.37109375 -13 17 C-11.5234375 14.16015625 -11.5234375 14.16015625 -9.375 11.0625 C-8.68148437 10.04285156 -7.98796875 9.02320313 -7.2734375 7.97265625 C-5.0402846 5.05267454 -2.65873164 2.53279172 0 0 Z M-8 22 C-7.01 22.33 -6.02 22.66 -5 23 C-5.99 23.33 -6.98 23.66 -8 24 C-8 23.34 -8 22.68 -8 22 Z " fill="#2B2F8A" transform="translate(57,38)"/>
<path d="M0 0 C0.99 0.33 1.98 0.66 3 1 C2.58647671 3.96358359 2.16498492 6.6081608 1 9.375 C-0.3465516 12.90969795 -0.61756063 16.23934616 -1 20 C0.32 19.67 1.64 19.34 3 19 C2.01 19.99 1.02 20.98 0 22 C-1.32 21.34 -2.64 20.68 -4 20 C-3.52013969 14.43109483 -2.70084819 9.32932432 -1 4 C-5.22747314 8.58077782 -8.89118901 13.0901648 -11.95703125 18.53125 C-12.47330078 19.25828125 -12.47330078 19.25828125 -13 20 C-13.66 20 -14.32 20 -15 20 C-14.505 15.545 -14.505 15.545 -14 11 C-12.68 11.66 -11.36 12.32 -10 13 C-9.79375 12.319375 -9.5875 11.63875 -9.375 10.9375 C-7.37810143 6.67139851 -4.30423557 2.15211778 0 0 Z " fill="#CCD4F0" transform="translate(58,35)"/>
<path d="M0 0 C0.66 0 1.32 0 2 0 C2 0.99 2 1.98 2 3 C1.34 3 0.68 3 0 3 C0.33 4.65 0.66 6.3 1 8 C1.99 8.33 2.98 8.66 4 9 C3.67 9.99 3.34 10.98 3 12 C-0.3 12.66 -3.6 13.32 -7 14 C-7.33 13.34 -7.66 12.68 -8 12 C-10.02463255 11.34786708 -10.02463255 11.34786708 -12 11 C-11.01 9.02 -10.02 7.04 -9 5 C-8.4225 5.2475 -7.845 5.495 -7.25 5.75 C-6.5075 5.8325 -5.765 5.915 -5 6 C-2.76656796 4.14944202 -1.29808458 2.59616917 0 0 Z " fill="#333E9D" transform="translate(63,50)"/>
<path d="M0 0 C0.33 1.32 0.66 2.64 1 4 C-0.093125 4.309375 -1.18625 4.61875 -2.3125 4.9375 C-4.55407994 5.58337897 -6.7869351 6.2623117 -9 7 C-11.33672984 6.6913753 -13.66993089 6.35543427 -16 6 C-17.9996695 5.96364237 -20.00059462 5.95123402 -22 6 C-15.39691302 0.22229889 -8.37919574 -0.46360304 0 0 Z " fill="#161F55" transform="translate(55,1)"/>
<path d="M0 0 C3.3 0 6.6 0 10 0 C4.375 6.75 4.375 6.75 1 9 C-1.33199388 9.07905064 -3.66832622 9.08798769 -6 9 C-5.34 7.35 -4.68 5.7 -4 4 C-3.34 4 -2.68 4 -2 4 C-1.34 2.68 -0.68 1.36 0 0 Z " fill="#4A4A9F" transform="translate(70,48)"/>
<path d="M0 0 C-0.33 5.61 -0.66 11.22 -1 17 C-1.66 17 -2.32 17 -3 17 C-3.433125 15.88625 -3.86625 14.7725 -4.3125 13.625 C-5.69911119 9.82487666 -5.69911119 9.82487666 -9 8 C-8.67 6.68 -8.34 5.36 -8 4 C-7.34 4 -6.68 4 -6 4 C-6 3.01 -6 2.02 -6 1 C-4 0 -4 0 0 0 Z " fill="#20338A" transform="translate(45,39)"/>
<path d="M0 0 C1.4765625 1.0625 1.4765625 1.0625 3 3 C4.11734088 11.93872704 2.96117074 20.52188616 0 29 C-0.99 28.34 -1.98 27.68 -3 27 C-2.67 26.01 -2.34 25.02 -2 24 C-3.65 24.66 -5.3 25.32 -7 26 C-5.32971708 22.05205855 -2.8204435 19.18203882 0 16 C0.33 16 0.66 16 1 16 C1.05399736 14.54207116 1.09279177 13.08357288 1.125 11.625 C1.15980469 10.40683594 1.15980469 10.40683594 1.1953125 9.1640625 C1.21370051 6.78657757 1.21370051 6.78657757 -1 5 C-0.625 2.375 -0.625 2.375 0 0 Z " fill="#9179B2" transform="translate(105,40)"/>
<path d="M0 0 C0 1.65 0 3.3 0 5 C0.66 5 1.32 5 2 5 C2 5.99 2 6.98 2 8 C2.99 8.66 3.98 9.32 5 10 C6.1875 12.125 6.1875 12.125 7 14 C0.5403669 12.67494706 -3.38917374 8.40590065 -8 4 C-7.67 3.01 -7.34 2.02 -7 1 C-4.53721199 -0.231394 -2.7204945 -0.07159196 0 0 Z " fill="#373B96" transform="translate(30,81)"/>
<path d="M0 0 C0.99 0.33 1.98 0.66 3 1 C3 1.66 3 2.32 3 3 C3.99 3.33 4.98 3.66 6 4 C4.6875 6.9375 4.6875 6.9375 3 10 C2.01 10.33 1.02 10.66 0 11 C-2.05925681 14.08888522 -2.2390374 14.70935927 -2.125 18.1875 C-2.08375 19.445625 -2.0425 20.70375 -2 22 C-2.66 22.33 -3.32 22.66 -4 23 C-4.46912652 14.56875388 -4.05086006 8.45068903 0 1 C0 0.67 0 0.34 0 0 Z " fill="#171F5D" transform="translate(12,35)"/>
<path d="M0 0 C2.66698331 0.73853737 2.66698331 0.73853737 5.5625 -0.5 C4.31273244 3.15316671 3.89151247 4.28065836 0.5625 6.5 C1.2225 6.83 1.8825 7.16 2.5625 7.5 C2.5625 8.16 2.5625 8.82 2.5625 9.5 C1.94375 9.644375 1.325 9.78875 0.6875 9.9375 C-1.47008322 10.43152225 -1.47008322 10.43152225 -3.4375 11.5 C-3.81968767 9.84385343 -4.15145102 8.17542976 -4.4375 6.5 C-4.1075 6.17 -3.7775 5.84 -3.4375 5.5 C-4.0975 5.17 -4.7575 4.84 -5.4375 4.5 C-5.0625 2.5625 -5.0625 2.5625 -4.4375 0.5 C-2.4375 -0.5 -2.4375 -0.5 0 0 Z " fill="#18276D" transform="translate(29.4375,32.5)"/>
<path d="M0 0 C1.125 3.75 1.125 3.75 0 6 C0.99 6 1.98 6 3 6 C3.33 5.34 3.66 4.68 4 4 C4 4.66 4 5.32 4 6 C5.32 6 6.64 6 8 6 C7.67 8.64 7.34 11.28 7 14 C6.34 14 5.68 14 5 14 C4.67 13.01 4.34 12.02 4 11 C4.66 11 5.32 11 6 11 C6 10.01 6 9.02 6 8 C5.34 8 4.68 8 4 8 C3.7525 8.639375 3.505 9.27875 3.25 9.9375 C2 12 2 12 -0.125 12.75 C-1.053125 12.87375 -1.053125 12.87375 -2 13 C-2.16682272 8.07872966 -2.24828052 4.49656104 0 0 Z " fill="#3B3F91" transform="translate(59,42)"/>
<path d="M0 0 C3.9252025 3.70090521 6.94580156 7.54959656 10 12 C9.67 12.66 9.34 13.32 9 14 C8.67 13.01 8.34 12.02 8 11 C5.52260646 10.09162237 3.66420516 10 1 10 C0.01 10 -0.98 10 -2 10 C-3.125 6.25 -3.125 6.25 -2 4 C-1.34 4 -0.68 4 0 4 C0 2.68 0 1.36 0 0 Z " fill="#2C338F" transform="translate(92,13)"/>
<path d="M0 0 C3.3891571 0.60520662 5.30430129 1.91300745 8 4 C8.99 4.33 9.98 4.66 11 5 C11.33 6.65 11.66 8.3 12 10 C9.525 9.01 9.525 9.01 7 8 C7 7.34 7 6.68 7 6 C6.34 6 5.68 6 5 6 C4.67 6.66 4.34 7.32 4 8 C2.68 7.67 1.36 7.34 0 7 C-1.125 2.25 -1.125 2.25 0 0 Z " fill="#1F2D8B" transform="translate(81,8)"/>
<path d="M0 0 C1 2 1 2 0.25 5.4375 C-1.47285464 10.34763573 -1.47285464 10.34763573 -4 12 C-5.32 12 -6.64 12 -8 12 C-8.3125 9.8125 -8.3125 9.8125 -8 7 C-5.52552136 4.12425455 -3.1557398 2.10382653 0 0 Z " fill="#C7D5EF" transform="translate(29,47)"/>
<path d="M0 0 C0.33 0.66 0.66 1.32 1 2 C1.99 2.33 2.98 2.66 4 3 C2.88809524 6.33571429 2.53679327 6.58417079 -0.375 8.1875 C-0.98085937 8.53167969 -1.58671875 8.87585938 -2.2109375 9.23046875 C-4 10 -4 10 -7 10 C-6.84518205 7.29068581 -6.51827919 5.53415961 -4.59765625 3.5546875 C-3.10228292 2.32320358 -1.5537076 1.1570163 0 0 Z " fill="#AC86BF" transform="translate(83,86)"/>
<path d="M0 0 C0.8353125 0.37125 0.8353125 0.37125 1.6875 0.75 C0.0375 1.08 -1.6125 1.41 -3.3125 1.75 C-3.374375 2.636875 -3.43625 3.52375 -3.5 4.4375 C-4.50408122 8.53106188 -6.26475433 9.92526011 -9.3125 12.75 C-9.68375 13.4925 -10.055 14.235 -10.4375 15 C-10.72625 15.5775 -11.015 16.155 -11.3125 16.75 C-12.3025 17.08 -13.2925 17.41 -14.3125 17.75 C-12.63924472 11.66543536 -7.83007879 -0.846495 0 0 Z " fill="#242A72" transform="translate(42.3125,38.25)"/>
<path d="M0 0 C1.60568666 0.28317926 3.20952047 0.57687791 4.8125 0.875 C6.15248047 1.11863281 6.15248047 1.11863281 7.51953125 1.3671875 C10 2 10 2 13 4 C13.36328125 6.3125 13.36328125 6.3125 13.3125 9 C13.30863281 9.886875 13.30476563 10.77375 13.30078125 11.6875 C13 14 13 14 11 16 C10.93941406 15.28972656 10.87882812 14.57945313 10.81640625 13.84765625 C10.73261719 12.92855469 10.64882813 12.00945313 10.5625 11.0625 C10.48128906 10.14597656 10.40007813 9.22945312 10.31640625 8.28515625 C10.23955024 6.03840268 10.23955024 6.03840268 9 5 C4.90210331 5.37943488 2.46041065 5.69305957 -1 8 C-0.67 5.36 -0.34 2.72 0 0 Z " fill="#33336F" transform="translate(36,32)"/>
<path d="M0 0 C0.66 0 1.32 0 2 0 C1.88617347 1.95901454 1.75858875 3.9172338 1.625 5.875 C1.55539063 6.96554688 1.48578125 8.05609375 1.4140625 9.1796875 C1 12 1 12 -1 14 C-1.33 13.01 -1.66 12.02 -2 11 C-2.33 10.67 -2.66 10.34 -3 10 C-5.475 11.485 -5.475 11.485 -8 13 C-7.44295272 9.76912579 -6.66812465 7.97638863 -4 6 C-2.68 6 -1.36 6 0 6 C0 4.02 0 2.04 0 0 Z M-4 14 C-3.01 14.33 -2.02 14.66 -1 15 C-1.99 15.33 -2.98 15.66 -4 16 C-4 15.34 -4 14.68 -4 14 Z " fill="#253396" transform="translate(53,46)"/>
<path d="M0 0 C1.87380446 2.49840595 2.05001932 3.63319166 1.625 6.75 C1.41875 7.4925 1.2125 8.235 1 9 C0.34 9 -0.32 9 -1 9 C-1.33 9.66 -1.66 10.32 -2 11 C-2 8.36 -2 5.72 -2 3 C-4.31 3.33 -6.62 3.66 -9 4 C-9 2.68 -9 1.36 -9 0 C-5.69978999 -0.8250525 -3.17546695 -1.42348518 0 0 Z " fill="#282D87" transform="translate(62,33)"/>
<path d="M0 0 C0.99 0.495 0.99 0.495 2 1 C2 1.99 2 2.98 2 4 C4.02045442 3.39816251 6.02111039 2.72693904 8 2 C8.33 1.34 8.66 0.68 9 0 C9.66 0.33 10.32 0.66 11 1 C10.67 2.65 10.34 4.3 10 6 C9.01 6.33 8.02 6.66 7 7 C6.34 7.66 5.68 8.32 5 9 C2.875 8.625 2.875 8.625 1 8 C1.33 7.01 1.66 6.02 2 5 C1.34 4.67 0.68 4.34 0 4 C0 2.68 0 1.36 0 0 Z " fill="#806DB7" transform="translate(86,55)"/>
<path d="M0 0 C0.99 0.33 1.98 0.66 3 1 C-0.73548742 4.73548742 -6.15182472 4.92917173 -11.26171875 5.125 C-14.17728339 5.125 -17.08588417 5.0887548 -20 5 C-19.34 4.34 -18.68 3.68 -18 3 C-15.98425346 3 -13.96792998 3.0048025 -11.953125 3.06640625 C-9.89558122 3.13220624 -9.89558122 3.13220624 -7.875 1.9375 C-5.08773434 0.54386717 -2.95119917 1.32927292 0 2 C0 1.34 0 0.68 0 0 Z " fill="#8B75A9" transform="translate(73,95)"/>
<path d="M0 0 C1.98 0.495 1.98 0.495 4 1 C4.33 4.3 4.66 7.6 5 11 C3.02 11.99 1.04 12.98 -1 14 C-1 12.02 -1 10.04 -1 8 C0.32 7.67 1.64 7.34 3 7 C2.42547254 3.06924356 2.42547254 3.06924356 0 0 Z " fill="#6B60AE" transform="translate(82,48)"/>
<path d="M0 0 C1.65 0.33 3.3 0.66 5 1 C5 1.66 5 2.32 5 3 C4.34 3 3.68 3 3 3 C3 3.66 3 4.32 3 5 C3.66 5 4.32 5 5 5 C5.33 5.99 5.66 6.98 6 8 C4.68 9.32 3.36 10.64 2 12 C0.875 5.25 0.875 5.25 2 3 C1.01 2.67 0.02 2.34 -1 2 C-0.67 1.34 -0.34 0.68 0 0 Z " fill="#243187" transform="translate(47,33)"/>
<path d="M0 0 C0 2.64 0 5.28 0 8 C-1.98 8.99 -1.98 8.99 -4 10 C-4.66 9.34 -5.32 8.68 -6 8 C-5.625 5.875 -5.625 5.875 -5 4 C-4.34 4 -3.68 4 -3 4 C-3 3.01 -3 2.02 -3 1 C-1 0 -1 0 0 0 Z " fill="#1F2880" transform="translate(42,39)"/>
<path d="M0 0 C0.66 0 1.32 0 2 0 C0.46527032 4.72224516 -1.23945126 9.35855331 -3 14 C-4.1875 12.5 -4.1875 12.5 -5 10 C-4.08306983 6.10112046 -2.84540689 2.84540689 0 0 Z " fill="#E7E3F7" transform="translate(93,33)"/>
<path d="M0 0 C0 1.32 0 2.64 0 4 C-0.66 4 -1.32 4 -2 4 C-2.33 4.66 -2.66 5.32 -3 6 C-5.475 5.01 -5.475 5.01 -8 4 C-7.67 3.01 -7.34 2.02 -7 1 C-4.53721199 -0.231394 -2.7204945 -0.07159196 0 0 Z " fill="#283398" transform="translate(30,81)"/>
<path d="M0 0 C2.475 0.495 2.475 0.495 5 1 C5.33 2.65 5.66 4.3 6 6 C5.01 6.495 5.01 6.495 4 7 C3.34 6.67 2.68 6.34 2 6 C1.67 6.66 1.34 7.32 1 8 C0.67 5.36 0.34 2.72 0 0 Z " fill="#1B226A" transform="translate(9,58)"/>
<path d="M0 0 C1 2 1 2 0.5 5 C-1 8 -1 8 -4.625 9.375 C-5.73875 9.58125 -6.8525 9.7875 -8 10 C-5.61820737 6.25718301 -3.25524265 3.02272532 0 0 Z " fill="#303A89" transform="translate(57,38)"/>
<path d="M0 0 C0.33 0.99 0.66 1.98 1 3 C2.41681634 2.68817931 3.83344651 2.37551263 5.25 2.0625 C6.03890625 1.88847656 6.8278125 1.71445312 7.640625 1.53515625 C9.76878703 1.052444 11.88532842 0.53836822 14 0 C9.18099548 4.97963801 9.18099548 4.97963801 4.375 5.0625 C3.26125 5.041875 2.1475 5.02125 1 5 C0.67 3.35 0.34 1.7 0 0 Z " fill="#DDDEFB" transform="translate(63,54)"/>
<path d="M0 0 C-1.15173355 2.46800047 -2.04783565 4.04783565 -4 6 C-4.99 6 -5.98 6 -7 6 C-6.67 4.02 -6.34 2.04 -6 0 C-2.25 -1.125 -2.25 -1.125 0 0 Z " fill="#73629F" transform="translate(95,49)"/>
<path d="M0 0 C3.36561121 0.23211112 4.78663863 0.67452188 7.625 2.25 C7.02171875 2.27578125 6.4184375 2.3015625 5.796875 2.328125 C0.51964661 2.65331983 0.51964661 2.65331983 -3.9375 5.3125 C-4.411875 5.951875 -4.88625 6.59125 -5.375 7.25 C-5.5 4.875 -5.5 4.875 -5.375 2.25 C-3.375 0.25 -3.375 0.25 0 0 Z " fill="#DDDEF8" transform="translate(72.375,44.75)"/>
<path d="M0 0 C0.66 0.33 1.32 0.66 2 1 C2.62599243 4.38035912 3 7.56169885 3 11 C1.0625 9.9375 1.0625 9.9375 -1 8 C-1.75 4.3125 -1.75 4.3125 -2 1 C-1.34 0.67 -0.68 0.34 0 0 Z " fill="#232E87" transform="translate(19,73)"/>
<path d="M0 0 C0.66 0 1.32 0 2 0 C2 0.99 2 1.98 2 3 C1.34 3 0.68 3 0 3 C0.33 5.31 0.66 7.62 1 10 C0.01 10 -0.98 10 -2 10 C-2 9.34 -2 8.68 -2 8 C-2.99 7.67 -3.98 7.34 -5 7 C-4.21654285 5.82780457 -3.42297164 4.66236332 -2.625 3.5 C-2.18414062 2.8503125 -1.74328125 2.200625 -1.2890625 1.53125 C-0.65097656 0.77328125 -0.65097656 0.77328125 0 0 Z " fill="#5E66AF" transform="translate(63,50)"/>
<path d="M0 0 C-0.33 0.99 -0.66 1.98 -1 3 C-4.3 3.66 -7.6 4.32 -11 5 C-11.33 4.34 -11.66 3.68 -12 3 C-8.06769671 0.37846447 -4.67664739 0 0 0 Z " fill="#4244A0" transform="translate(67,59)"/>
<path d="M0 0 C0.66 0.66 1.32 1.32 2 2 C0.39602723 2.16852247 -1.2081869 2.33474886 -2.8125 2.5 C-3.70582031 2.5928125 -4.59914063 2.685625 -5.51953125 2.78125 C-8 3 -8 3 -11 3 C-7.20866735 -0.96366595 -5.43044604 -1.24447722 0 0 Z " fill="#383D95" transform="translate(77,43)"/>
<path d="M0 0 C2.31 0.33 4.62 0.66 7 1 C4.60490662 3.89932357 2.68754757 4.50168276 -1 5 C-0.67 3.35 -0.34 1.7 0 0 Z " fill="#A484B5" transform="translate(77,91)"/>
<path d="M0 0 C0.6875 1.625 0.6875 1.625 1 4 C-0.4375 7.25 -0.4375 7.25 -2 10 C-2.99 9.67 -3.98 9.34 -5 9 C-4.42647107 5.12867972 -2.51295648 2.91827204 0 0 Z " fill="#9EA0CA" transform="translate(89,37)"/>
<path d="M0 0 C0.66 0.33 1.32 0.66 2 1 C2.625 4.0625 2.625 4.0625 3 7 C2.01 7.66 1.02 8.32 0 9 C-0.99 8.67 -1.98 8.34 -3 8 C-2.01 5.36 -1.02 2.72 0 0 Z " fill="#6E5E9D" transform="translate(92,39)"/>
<path d="M0 0 C1.22589844 0.29197266 1.22589844 0.29197266 2.4765625 0.58984375 C3.41628906 0.82380859 3.41628906 0.82380859 4.375 1.0625 C4.375 1.3925 4.375 1.7225 4.375 2.0625 C2.065 2.0625 -0.245 2.0625 -2.625 2.0625 C-2.955 2.7225 -3.285 3.3825 -3.625 4.0625 C-4.285 4.0625 -4.945 4.0625 -5.625 4.0625 C-5.955 2.7425 -6.285 1.4225 -6.625 0.0625 C-3.99249612 -1.25375194 -2.82320944 -0.68563658 0 0 Z " fill="#1F2664" transform="translate(69.625,0.9375)"/>
<path d="M0 0 C0.66 0.33 1.32 0.66 2 1 C-2.19761499 7.89608177 -2.19761499 7.89608177 -6 9 C-6.99 8.67 -7.98 8.34 -9 8 C-8.43410156 7.50628906 -7.86820312 7.01257812 -7.28515625 6.50390625 C-6.55167969 5.86324219 -5.81820312 5.22257812 -5.0625 4.5625 C-4.33160156 3.92441406 -3.60070312 3.28632812 -2.84765625 2.62890625 C-1.87860647 1.77458541 -0.91348825 0.91348825 0 0 Z " fill="#64579B" transform="translate(82,49)"/>
<path d="M0 0 C0.99 0.33 1.98 0.66 3 1 C3 4.3 3 7.6 3 11 C2.01 11.495 2.01 11.495 1 12 C0.67 8.04 0.34 4.08 0 0 Z " fill="#E0E6F9" transform="translate(44,37)"/>
<path d="M0 0 C0.66 0 1.32 0 2 0 C1.38461538 5.53846154 1.38461538 5.53846154 -0.5625 7.875 C-1.2740625 8.431875 -1.2740625 8.431875 -2 9 C-1.67 7.35 -1.34 5.7 -1 4 C-1.99 4.66 -2.98 5.32 -4 6 C-2.84826645 3.53199953 -1.95216435 1.95216435 0 0 Z " fill="#DEE6F9" transform="translate(30,44)"/>
<path d="M0 0 C1.32 1.32 2.64 2.64 4 4 C2.625 6.5 2.625 6.5 1 9 C0.34 9 -0.32 9 -1 9 C-0.67 6.03 -0.34 3.06 0 0 Z " fill="#B2BDE3" transform="translate(44,46)"/>
<path d="M0 0 C1.11003253 3.3300976 0.9343162 3.97843441 -0.25 7.125 C-0.62898438 8.18074219 -0.62898438 8.18074219 -1.015625 9.2578125 C-2 11 -2 11 -5 12 C-3.68938409 7.76570244 -2.05643741 3.92592596 0 0 Z " fill="#383170" transform="translate(33,44)"/>
<path d="M0 0 C1.98 0.66 3.96 1.32 6 2 C6.33 3.65 6.66 5.3 7 7 C4.625 6.3125 4.625 6.3125 2 5 C0.6875 2.375 0.6875 2.375 0 0 Z " fill="#252F99" transform="translate(86,11)"/>
<path d="M0 0 C2.375 0.1875 2.375 0.1875 5 1 C6.3125 3.5625 6.3125 3.5625 7 6 C4.0625 5.25 4.0625 5.25 1 4 C0.125 1.875 0.125 1.875 0 0 Z " fill="#484794" transform="translate(30,89)"/>
<path d="M0 0 C0.33 0.66 0.66 1.32 1 2 C-0.98 4.64 -2.96 7.28 -5 10 C-5.66 9.67 -6.32 9.34 -7 9 C-4.69 6.03 -2.38 3.06 0 0 Z " fill="#3B4076" transform="translate(29,47)"/>
<path d="M0 0 C0.66 0.66 1.32 1.32 2 2 C1.06409496 3.1055189 0.12620142 4.20935453 -0.8125 5.3125 C-1.33457031 5.92738281 -1.85664062 6.54226562 -2.39453125 7.17578125 C-3.87172469 8.85424679 -5.40039131 10.43882034 -7 12 C-5.44298069 7.32894208 -2.91552627 3.91294315 0 0 Z " fill="#C5CAF1" transform="translate(54,38)"/>
<path d="M0 0 C0.99 0.99 1.98 1.98 3 3 C0.35261084 4.4606285 -0.89448334 5 -4 5 C-2.25 1.125 -2.25 1.125 0 0 Z " fill="#32399F" transform="translate(94,18)"/>
<path d="M0 0 C1.32 0.66 2.64 1.32 4 2 C1.03 4.475 1.03 4.475 -2 7 C-1.125 2.25 -1.125 2.25 0 0 Z " fill="#28377C" transform="translate(28,41)"/>
<path d="M0 0 C5.57142857 5.14285714 5.57142857 5.14285714 6 9 C5.34 8.67 4.68 8.34 4 8 C4 7.34 4 6.68 4 6 C2.68 5.67 1.36 5.34 0 5 C0 3.35 0 1.7 0 0 Z " fill="#42428F" transform="translate(96,18)"/>
<path d="M0 0 C0.66 0 1.32 0 2 0 C2 0.66 2 1.32 2 2 C4.97 2.495 4.97 2.495 8 3 C7.67 3.99 7.34 4.98 7 6 C6.01 6 5.02 6 4 6 C0 1.54285714 0 1.54285714 0 0 Z " fill="#685CAF" transform="translate(71,58)"/>
<path d="M0 0 C0.66 0 1.32 0 2 0 C1.25 6.75 1.25 6.75 -1 9 C-0.67 6.03 -0.34 3.06 0 0 Z " fill="#DFE3F7" transform="translate(57,40)"/>
<path d="M0 0 C0.99 0.33 1.98 0.66 3 1 C3 1.66 3 2.32 3 3 C3.66 3 4.32 3 5 3 C4.34 4.65 3.68 6.3 3 8 C2.34 7.01 1.68 6.02 1 5 C1.33 4.01 1.66 3.02 2 2 C0.68 1.67 -0.64 1.34 -2 1 C-1.34 0.67 -0.68 0.34 0 0 Z " fill="#C2C7E1" transform="translate(30,38)"/>
<path d="M0 0 C0.66 0.66 1.32 1.32 2 2 C0.68 3.65 -0.64 5.3 -2 7 C-2.99 6.67 -3.98 6.34 -5 6 C-3.35 4.02 -1.7 2.04 0 0 Z " fill="#BFC6E8" transform="translate(27,52)"/>
<path d="M0 0 C0.99 0.33 1.98 0.66 3 1 C3 1.99 3 2.98 3 4 C1.02 4 -0.96 4 -3 4 C-2.67 3.01 -2.34 2.02 -2 1 C-1.34 0.67 -0.68 0.34 0 0 Z " fill="#4343A9" transform="translate(80,40)"/>
<path d="M0 0 C0.66 1.32 1.32 2.64 2 4 C1.34 4 0.68 4 0 4 C-0.33 4.66 -0.66 5.32 -1 6 C-1.66 5.67 -2.32 5.34 -3 5 C-2.625 3.0625 -2.625 3.0625 -2 1 C-1.34 0.67 -0.68 0.34 0 0 Z " fill="#172163" transform="translate(27,32)"/>
</svg>
